<svg xmlns="http://www.w3.org/2000/svg" xmlns:xlink="http://www.w3.org/1999/xlink" width="1024" zoomAndPan="magnify" viewBox="0 0 768 767.999994" height="1024" preserveAspectRatio="xMidYMid meet" version="1.2"><defs><clipPath id="200adda920"><path d="M 35.675781 351 L 427.679688 351 L 427.679688 724 L 35.675781 724 Z M 35.675781 351 "/></clipPath><clipPath id="4423830bc6"><path d="M 399.996094 463.074219 C 383.769531 426.285156 360.941406 389.304688 323.960938 370.25 C 320.566406 368.550781 316.980469 366.851562 313.398438 365.53125 C 295.851562 357.796875 277.359375 353.644531 258.304688 352.890625 C 255.664062 352.515625 252.832031 352.136719 250.003906 351.949219 C 231.890625 350.628906 215.476562 354.402344 200.382812 361.382812 C 172.835938 369.871094 146.046875 383.457031 123.40625 400.246094 C 93.785156 422.511719 69.257812 451.1875 54.542969 485.527344 C 45.863281 505.714844 40.957031 526.847656 38.316406 548.730469 C 35.484375 571.371094 33.976562 595.144531 38.882812 617.40625 C 47.558594 656.273438 79.632812 687.214844 114.539062 704.007812 C 151.140625 721.554688 192.082031 726.835938 232.078125 721.554688 C 274.53125 715.894531 314.90625 699.101562 351.132812 676.460938 C 383.769531 656.085938 415.277344 628.539062 424.335938 589.484375 C 434.335938 545.902344 417.164062 502.320312 399.996094 463.074219 Z M 399.996094 463.074219 "/></clipPath><clipPath id="4ebce3308e"><path d="M 0.675781 0.601562 L 392.679688 0.601562 L 392.679688 372.601562 L 0.675781 372.601562 Z M 0.675781 0.601562 "/></clipPath><clipPath id="45b016f03c"><path d="M 364.996094 112.074219 C 348.769531 75.285156 325.941406 38.304688 288.960938 19.25 C 285.566406 17.550781 281.980469 15.851562 278.398438 14.53125 C 260.851562 6.796875 242.359375 2.644531 223.304688 1.890625 C 220.664062 1.515625 217.832031 1.136719 215.003906 0.949219 C 196.890625 -0.371094 180.476562 3.402344 165.382812 10.382812 C 137.835938 18.871094 111.046875 32.457031 88.40625 49.246094 C 58.785156 71.511719 34.257812 100.1875 19.542969 134.527344 C 10.863281 154.714844 5.957031 175.847656 3.316406 197.730469 C 0.484375 220.371094 -1.023438 244.144531 3.882812 266.40625 C 12.558594 305.273438 44.632812 336.214844 79.539062 353.007812 C 116.140625 370.554688 157.082031 375.835938 197.078125 370.554688 C 239.53125 364.894531 279.90625 348.101562 316.132812 325.460938 C 348.769531 305.085938 380.277344 277.539062 389.335938 238.484375 C 399.335938 194.902344 382.164062 151.320312 364.996094 112.074219 Z M 364.996094 112.074219 "/></clipPath><clipPath id="f075795e5b"><rect x="0" width="393" y="0" height="373"/></clipPath><clipPath id="9c3d189c3b"><path d="M 357.945312 44 L 749.953125 44 L 749.953125 417 L 357.945312 417 Z M 357.945312 44 "/></clipPath><clipPath id="7aa5679dbc"><path d="M 722.269531 155.875 C 706.042969 119.085938 683.214844 82.105469 646.234375 63.050781 C 642.839844 61.351562 639.253906 59.652344 635.667969 58.332031 C 618.125 50.597656 599.632812 46.445312 580.578125 45.691406 C 577.9375 45.3125 575.105469 44.9375 572.277344 44.75 C 554.164062 43.425781 537.75 47.199219 522.65625 54.183594 C 495.109375 62.671875 468.320312 76.257812 445.679688 93.046875 C 416.058594 115.3125 391.53125 143.988281 376.8125 178.328125 C 368.136719 198.515625 363.230469 219.644531 360.589844 241.53125 C 357.757812 264.171875 356.25 287.945312 361.152344 310.207031 C 369.832031 349.074219 401.90625 380.015625 436.8125 396.808594 C 473.414062 414.355469 514.355469 419.636719 554.351562 414.355469 C 596.804688 408.695312 637.179688 391.902344 673.402344 369.261719 C 706.042969 348.886719 737.550781 321.339844 746.609375 282.285156 C 756.609375 238.703125 739.4375 195.117188 722.269531 155.875 Z M 722.269531 155.875 "/></clipPath><clipPath id="b0ee24a326"><path d="M 0.945312 0.398438 L 392.953125 0.398438 L 392.953125 372.398438 L 0.945312 372.398438 Z M 0.945312 0.398438 "/></clipPath><clipPath id="7d07c30bbd"><path d="M 365.269531 111.875 C 349.042969 75.085938 326.214844 38.105469 289.234375 19.050781 C 285.839844 17.351562 282.253906 15.652344 278.667969 14.332031 C 261.125 6.597656 242.632812 2.445312 223.578125 1.691406 C 220.9375 1.3125 218.105469 0.9375 215.277344 0.75 C 197.164062 -0.574219 180.75 3.199219 165.65625 10.183594 C 138.109375 18.671875 111.320312 32.257812 88.679688 49.046875 C 59.058594 71.3125 34.53125 99.988281 19.8125 134.328125 C 11.136719 154.515625 6.230469 175.644531 3.589844 197.53125 C 0.757812 220.171875 -0.75 243.945312 4.152344 266.207031 C 12.832031 305.074219 44.90625 336.015625 79.8125 352.808594 C 116.414062 370.355469 157.355469 375.636719 197.351562 370.355469 C 239.804688 364.695312 280.179688 347.902344 316.402344 325.261719 C 349.042969 304.886719 380.550781 277.339844 389.609375 238.285156 C 399.609375 194.703125 382.4375 151.117188 365.269531 111.875 Z M 365.269531 111.875 "/></clipPath><clipPath id="00021d8dcc"><rect x="0" width="393" y="0" height="373"/></clipPath><clipPath id="6c35632c3d"><path d="M 241 230.398438 L 527 230.398438 L 527 536 L 241 536 Z M 241 230.398438 "/></clipPath></defs><g id="c3e8659ade"><g clip-rule="nonzero" clip-path="url(#200adda920)"><g clip-rule="nonzero" clip-path="url(#4423830bc6)"><g transform="matrix(1,0,0,1,35,351)"><g clip-path="url(#f075795e5b)"><g clip-rule="nonzero" clip-path="url(#4ebce3308e)"><g clip-rule="nonzero" clip-path="url(#45b016f03c)"><path style=" stroke:none;fill-rule:nonzero;fill:#d9d9d9;fill-opacity:1;" d="M 0.675781 0.757812 L 392.679688 0.757812 L 392.679688 372.441406 L 0.675781 372.441406 Z M 0.675781 0.757812 "/></g></g></g></g></g></g><g clip-rule="nonzero" clip-path="url(#9c3d189c3b)"><g clip-rule="nonzero" clip-path="url(#7aa5679dbc)"><g transform="matrix(1,0,0,1,357,44)"><g clip-path="url(#00021d8dcc)"><g clip-rule="nonzero" clip-path="url(#b0ee24a326)"><g clip-rule="nonzero" clip-path="url(#7d07c30bbd)"><path style=" stroke:none;fill-rule:nonzero;fill:#d9d9d9;fill-opacity:1;" d="M 0.945312 0.558594 L 392.953125 0.558594 L 392.953125 372.242188 L 0.945312 372.242188 Z M 0.945312 0.558594 "/></g></g></g></g></g></g><g clip-rule="nonzero" clip-path="url(#6c35632c3d)"><path style=" stroke:none;fill-rule:nonzero;fill:#000000;fill-opacity:1;" d="M 283.675781 478.460938 C 288.8125 489.269531 302.5 509.320312 336.597656 522.808594 C 346.570312 526.757812 356.179688 529.511719 365.171875 531.007812 C 401.339844 533.390625 425.25 491.683594 427.859375 486.917969 C 430.867188 481.394531 432.867188 477.28125 433.8125 474.707031 C 438.066406 463.097656 452.59375 434.914062 457.894531 430.179688 C 459.9375 428.347656 466.820312 420.375 474.109375 411.9375 C 483.503906 401.058594 494.15625 388.726562 498.253906 385.109375 C 498.765625 384.664062 499.359375 384.144531 500.03125 383.5625 C 506.324219 378.101562 523.039062 363.59375 522.84375 355.425781 C 522.8125 354.027344 522.261719 352.945312 521.105469 352.035156 C 519.019531 350.390625 516.878906 349.480469 514.71875 349.324219 C 508.53125 348.875 502.890625 354.636719 499.519531 358.078125 L 499.027344 358.582031 C 494.382812 363.320312 454.058594 398.242188 452.34375 399.722656 C 451.828125 400.160156 447.355469 403.808594 443.007812 403.496094 C 441.371094 403.378906 439.964844 402.730469 438.84375 401.566406 C 434.789062 397.410156 438.726562 388.941406 441.597656 382.757812 C 442.148438 381.566406 442.628906 380.535156 442.929688 379.78125 C 444.347656 376.199219 459.242188 342.347656 465.605469 327.898438 C 467.03125 324.660156 468.03125 322.386719 468.359375 321.632812 C 469.03125 320.097656 471.152344 315.765625 473.605469 310.746094 C 477.503906 302.78125 483.390625 290.742188 483.988281 288.714844 C 484.203125 287.980469 484.644531 287.066406 485.203125 285.914062 C 486.671875 282.878906 489.128906 277.804688 487.636719 274.339844 C 486.878906 272.570312 485.15625 271.28125 482.371094 270.390625 C 481.371094 270.074219 480.382812 269.875 479.4375 269.808594 C 470.796875 269.183594 465.476562 279.535156 461.589844 287.101562 C 461.078125 288.097656 460.589844 289.042969 460.125 289.914062 C 454.457031 300.46875 425.992188 353.367188 422.105469 358.710938 C 421.171875 360 420.273438 361.425781 419.402344 362.8125 C 416.695312 367.113281 414.359375 370.828125 410.960938 370.582031 C 410.476562 370.546875 409.996094 370.429688 409.53125 370.222656 C 405.898438 368.59375 407.109375 362.167969 411.414062 347.417969 C 412.003906 345.394531 412.515625 343.648438 412.796875 342.484375 C 413.238281 340.664062 414.859375 334.339844 416.910156 326.335938 C 421.234375 309.46875 427.761719 283.972656 429.234375 277.265625 C 431.339844 267.757812 434.945312 256.003906 435.234375 255.078125 C 436.066406 251.667969 437.578125 242.003906 434.78125 237.40625 C 434.015625 236.148438 432.992188 235.386719 431.652344 235.066406 C 430.828125 234.871094 430.011719 234.738281 429.21875 234.683594 C 418.5625 233.910156 413.007812 245.660156 410.214844 255.648438 C 405.421875 272.878906 391.574219 313.03125 390.753906 315.40625 C 390.503906 316.550781 388.378906 325.980469 385.332031 335.226562 C 379.109375 354.152344 374.46875 356.058594 371.515625 355.851562 L 371.511719 355.851562 C 371.257812 355.832031 371.011719 355.792969 370.761719 355.730469 C 362.613281 353.820312 362.996094 334.976562 364.085938 315.84375 C 364.234375 313.253906 364.363281 311.015625 364.382812 309.582031 C 364.507812 301.074219 364.277344 248.199219 364.273438 247.667969 C 364.277344 246.78125 364.011719 239.269531 353.503906 238.402344 L 353.386719 238.390625 C 350.972656 238.21875 349.003906 238.828125 347.386719 240.253906 C 341.863281 245.117188 341.128906 258.519531 340.640625 267.390625 C 340.59375 268.1875 336.117188 347.714844 330.382812 367.644531 C 325.277344 385.351562 309.683594 400.152344 305.632812 403.277344 C 305.21875 403.632812 304.667969 403.8125 304.113281 403.773438 C 302.546875 403.664062 301.375 402.359375 298.957031 395.261719 C 296.3125 387.558594 286.476562 363.597656 279.945312 355.261719 C 273.992188 347.644531 263.878906 339.183594 255.75 338.59375 C 253.457031 338.429688 251.363281 338.882812 249.53125 339.945312 L 249.308594 340.054688 C 249.285156 340.066406 246.34375 341.363281 245.535156 344.027344 C 244.992188 345.816406 245.507812 347.945312 247.066406 350.359375 C 251.789062 357.660156 263.214844 377.21875 267.421875 401.136719 C 270.238281 417.210938 270.40625 419.886719 270.597656 422.980469 C 270.667969 424.140625 270.746094 425.34375 270.976562 427.394531 C 272.898438 439.988281 277.433594 465.554688 280.714844 471.605469 C 281.589844 473.203125 282.582031 475.511719 283.675781 478.460938 Z M 364.722656 534.882812 L 364.628906 534.867188 C 355.339844 533.335938 345.425781 530.496094 335.160156 526.4375 C 299.734375 512.425781 285.464844 491.363281 280.113281 480.054688 L 280.046875 479.894531 C 279.019531 477.117188 278.066406 474.894531 277.289062 473.464844 C 272.863281 465.304688 267.34375 429.429688 267.113281 427.910156 C 266.855469 425.683594 266.78125 424.433594 266.703125 423.226562 C 266.515625 420.242188 266.355469 417.667969 263.582031 401.8125 C 259.496094 378.597656 248.382812 359.574219 243.789062 352.476562 C 241.570312 349.039062 240.90625 345.800781 241.816406 342.851562 C 243.066406 338.808594 246.890625 336.875 247.664062 336.519531 C 250.167969 335.09375 252.980469 334.484375 256.03125 334.707031 C 266.039062 335.429688 276.824219 344.9375 283.015625 352.859375 C 289.921875 361.679688 299.855469 385.863281 302.644531 394 C 303.535156 396.613281 304.183594 398.152344 304.613281 399.054688 C 309.683594 394.59375 322.335938 381.480469 326.636719 366.566406 C 331.34375 350.1875 335.617188 287.753906 336.746094 267.175781 C 337.410156 255.078125 338.582031 242.808594 344.804688 237.328125 C 347.222656 235.203125 350.199219 234.253906 353.671875 234.5 L 353.824219 234.515625 C 368.234375 235.703125 368.179688 247.574219 368.175781 247.695312 C 368.179688 248.183594 368.40625 301.09375 368.285156 309.636719 C 368.265625 311.15625 368.136719 313.324219 367.980469 316.066406 C 367.613281 322.542969 367.105469 331.417969 367.578125 338.953125 C 368.269531 349.96875 370.660156 351.703125 371.65625 351.9375 L 371.792969 351.960938 C 372.183594 351.984375 375.796875 351.722656 381.621094 334.035156 C 384.789062 324.40625 386.949219 314.5625 386.96875 314.460938 L 387.035156 314.238281 C 387.175781 313.820312 401.578125 272.160156 406.460938 254.605469 C 412.523438 232.875 423.496094 230.359375 429.496094 230.792969 C 430.5 230.863281 431.53125 231.023438 432.5625 231.269531 C 434.929688 231.839844 436.800781 233.222656 438.113281 235.382812 C 442.347656 242.339844 439.144531 255.511719 439.007812 256.070312 L 438.976562 256.179688 C 438.941406 256.296875 435.1875 268.417969 433.042969 278.105469 C 431.558594 284.875 425.019531 310.40625 420.691406 327.300781 C 418.640625 335.292969 417.023438 341.609375 416.589844 343.40625 C 416.285156 344.65625 415.765625 346.441406 415.160156 348.511719 C 413.894531 352.835938 410.617188 364.082031 411.363281 366.683594 C 412.472656 366.5 414.730469 362.910156 416.101562 360.734375 C 417.003906 359.296875 417.941406 357.8125 418.949219 356.421875 C 422.050781 352.152344 444.128906 311.449219 456.6875 288.070312 C 457.144531 287.21875 457.617188 286.292969 458.121094 285.316406 C 462.257812 277.269531 468.507812 265.105469 479.722656 265.917969 C 480.96875 266.007812 482.261719 266.261719 483.554688 266.671875 C 487.425781 267.910156 490.007812 269.96875 491.222656 272.792969 C 493.414062 277.894531 490.472656 283.980469 488.714844 287.609375 C 488.277344 288.523438 487.855469 289.386719 487.730469 289.808594 C 487.09375 291.988281 482.738281 300.957031 477.109375 312.460938 C 474.671875 317.441406 472.570312 321.742188 471.933594 323.195312 C 471.605469 323.953125 470.601562 326.226562 469.171875 329.46875 C 462.820312 343.902344 447.949219 377.703125 446.550781 381.214844 C 446.210938 382.078125 445.714844 383.152344 445.136719 384.398438 C 443.292969 388.367188 439.464844 396.613281 441.636719 398.851562 C 442.09375 399.316406 442.617188 399.554688 443.289062 399.605469 C 445.640625 399.777344 448.796875 397.605469 449.8125 396.753906 C 450.210938 396.414062 491.707031 360.480469 496.242188 355.847656 L 496.734375 355.347656 C 500.574219 351.421875 507.007812 344.855469 515.003906 345.433594 C 517.953125 345.644531 520.8125 346.839844 523.519531 348.972656 C 525.570312 350.59375 526.683594 352.792969 526.746094 355.335938 C 526.980469 365.339844 510.503906 379.636719 502.585938 386.511719 C 501.925781 387.082031 501.335938 387.59375 500.835938 388.03125 C 496.933594 391.480469 486.378906 403.703125 477.0625 414.488281 C 469.371094 423.394531 462.730469 431.082031 460.496094 433.089844 C 456.039062 437.058594 441.789062 464.28125 437.472656 476.050781 C 436.464844 478.804688 434.378906 483.089844 431.28125 488.789062 C 428.546875 493.785156 403.445312 537.515625 364.816406 534.890625 L 364.722656 534.882812 "/></g></g></svg>